<?xml version="1.0" encoding="utf-8"?>
<!-- Generator: Adobe Illustrator 16.0.0, SVG Export Plug-In . SVG Version: 6.00 Build 0)  -->
<!DOCTYPE svg PUBLIC "-//W3C//DTD SVG 1.1//EN" "http://www.w3.org/Graphics/SVG/1.1/DTD/svg11.dtd">
<svg version="1.1" id="Layer_1" xmlns="http://www.w3.org/2000/svg" xmlns:xlink="http://www.w3.org/1999/xlink" x="0px" y="0px"
	 width="397.48px" height="392.98px" viewBox="0 0 397.48 392.98" enable-background="new 0 0 397.48 392.98" xml:space="preserve">
<rect x="463.533" y="33.73" fill="#FF88AD" width="75" height="300"/>
<rect x="538.533" y="33.73" fill="#FFCE00" width="150.002" height="300"/>
<rect x="688.535" y="33.73" fill="#7BC3FF" width="74.998" height="300"/>
<line fill="none" stroke="#939598" stroke-miterlimit="10" x1="613.533" y1="33.73" x2="613.533" y2="333.731"/>
<line fill="none" stroke="#939598" stroke-miterlimit="10" x1="613.533" y1="183.731" x2="763.533" y2="183.731"/>
<line fill="none" stroke="#939598" stroke-miterlimit="10" x1="463.533" y1="183.731" x2="613.533" y2="183.731"/>
<text transform="matrix(1 0 0 1 575.2007 97.481)" font-family="'DINOT'" font-size="26">V</text>
<text transform="matrix(0.583 0 0 0.583 589.3965 106.1392)" font-family="'DINOT'" font-size="26">dd</text>
<text transform="matrix(1 0 0 1 620.0337 282.064)" font-family="'DINOT'" font-size="26">V</text>
<text transform="matrix(0.583 0 0 0.583 634.2295 290.7222)" font-family="'DINOT'" font-size="26">ss</text>
<text transform="matrix(1 0 0 1 679.2114 23.5645)" fill="#7BC3FF" font-family="'DINOT'" font-size="26">1. V</text>
<text transform="matrix(0.583 0 0 0.583 720.4722 32.2227)" fill="#7BC3FF" font-family="'DINOT'" font-size="26">+ </text>
<text transform="matrix(1 0 0 1 732.1587 23.5645)" fill="#7BC3FF" font-family="'DINOT'" font-size="26">&gt; V</text>
<text transform="matrix(0.583 0 0 0.583 766.3999 32.2227)" fill="#7BC3FF" font-family="'DINOT'" font-size="26">-</text>
<text transform="matrix(1 0 0 1 454.2104 23.5645)" fill="#FF88AD" font-family="'DINOT'" font-size="26">2. V</text>
<text transform="matrix(0.583 0 0 0.583 495.4712 32.2227)" fill="#FF88AD" font-family="'DINOT'" font-size="26">+ </text>
<text transform="matrix(1 0 0 1 507.1577 23.5645)" fill="#FF88AD" font-family="'DINOT'" font-size="26">&lt; V</text>
<text transform="matrix(0.583 0 0 0.583 541.3989 32.2227)" fill="#FF88AD" font-family="'DINOT'" font-size="26">-</text>
<text transform="matrix(1 0 0 1 765.8242 187.731)" fill="#FFFFFF" font-family="'DINOT'" font-size="26">V</text>
<text transform="matrix(0.583 0 0 0.583 780.02 196.3892)" fill="#FFFFFF" font-family="'DINOT'" font-size="26">+ </text>
<text transform="matrix(1 0 0 1 791.7065 187.731)" fill="#FFFFFF" font-family="'DINOT'" font-size="26">- V</text>
<text transform="matrix(0.583 0 0 0.583 823.4521 196.3892)" fill="#FFFFFF" font-family="'DINOT'" font-size="26">-</text>
<text transform="matrix(1 0 0 1 566.7109 23.5645)" fill="#FFCE00" font-family="'DINOT'" font-size="26">3. V</text>
<text transform="matrix(0.583 0 0 0.583 607.9717 32.2227)" fill="#FFCE00" font-family="'DINOT'" font-size="26">+ </text>
<text transform="matrix(1 0 0 1 619.6582 23.5645)" fill="#FFCE00" font-family="'DINOT'" font-size="26">= V</text>
<text transform="matrix(0.583 0 0 0.583 653.8994 32.2227)" fill="#FFCE00" font-family="'DINOT'" font-size="26">-</text>
<text transform="matrix(1 0 0 1 595.6445 355.3979)" fill="#FFFFFF" font-family="'DINOT'" font-size="26">V</text>
<text transform="matrix(0.583 0 0 0.583 609.8403 364.0562)" fill="#FFFFFF" font-family="'DINOT'" font-size="26">out</text>
<line fill="none" stroke="#231F20" stroke-miterlimit="10" stroke-dasharray="6" x1="688.533" y1="108.731" x2="463.533" y2="108.731"/>
<line fill="none" stroke="#231F20" stroke-miterlimit="10" stroke-dasharray="6" x1="763.533" y1="258.731" x2="538.533" y2="258.731"/>
<polyline fill="none" stroke="#231F20" stroke-width="3" stroke-miterlimit="10" points="763.533,108.731 688.533,108.731 
	538.533,258.731 463.533,258.731 "/>
<line fill="none" stroke="#FFFFFF" stroke-width="3" stroke-miterlimit="10" x1="259.781" y1="183.731" x2="292.541" y2="183.731"/>
<line fill="none" stroke="#FFFFFF" stroke-width="3" stroke-miterlimit="10" x1="103.238" y1="144.203" x2="47.886" y2="144.203"/>
<line fill="none" stroke="#FFFFFF" stroke-width="3" stroke-miterlimit="10" x1="292.541" y1="183.731" x2="317.541" y2="183.731"/>
<text transform="matrix(1 0 0 1 326.6831 183.731)" fill="#FFFFFF" font-family="'DINOT'" font-size="48">V</text>
<text transform="matrix(0.583 0 0 0.583 352.8906 199.7148)" fill="#FFFFFF" font-family="'DINOT'" font-size="48">out</text>
<text transform="matrix(1 0 0 1 9.02 156.6191)" fill="#FFFFFF" font-family="'DINOT'" font-size="48">V</text>
<text transform="matrix(0.583 0 0 0.583 35.2275 172.603)" fill="#FFFFFF" font-family="'DINOT'" font-size="48">+</text>
<text transform="matrix(1 0 0 1 105.2578 373.3979)" fill="#FFFFFF" font-family="'DINOT'" font-size="48">V</text>
<text transform="matrix(0.583 0 0 0.583 131.4653 389.3823)" fill="#FFFFFF" font-family="'DINOT'" font-size="48">- </text>
<text transform="matrix(1 0 0 1 150.354 373.3979)" fill="#FFFFFF" font-family="'DINOT'" font-size="48">= V</text>
<text transform="matrix(0.583 0 0 0.583 213.5684 389.3823)" fill="#FFFFFF" font-family="'DINOT'" font-size="48">out</text>
<polyline fill="none" stroke="#FFFFFF" stroke-width="3" stroke-miterlimit="10" points="103.238,223.258 64.386,223.258 
	64.386,324.398 292.541,324.398 292.541,183.731 "/>
<g>
	<polyline fill="none" stroke="#FFFFFF" stroke-width="3" stroke-miterlimit="10" points="174.083,139.122 174.083,70.122 
		195.732,57.622 152.431,82.622 	"/>
	<polyline fill="none" stroke="#FFFFFF" stroke-width="3" stroke-miterlimit="10" points="195.733,284.839 152.432,309.839 
		174.082,297.339 174.082,228.339 	"/>
	<g>
		<polygon fill="none" stroke="#FFFFFF" stroke-width="3" stroke-miterlimit="10" points="103.238,104.729 264.126,183.785 
			103.238,262.839 		"/>
		
			<line fill="none" stroke="#FFFFFF" stroke-width="3" stroke-miterlimit="10" x1="117.594" y1="223.312" x2="142.427" y2="223.312"/>
		<g>
			
				<line fill="none" stroke="#FFFFFF" stroke-width="3" stroke-miterlimit="10" x1="117.594" y1="144.256" x2="142.427" y2="144.256"/>
			<line fill="none" stroke="#FFFFFF" stroke-width="3" stroke-miterlimit="10" x1="130.01" y1="131.84" x2="130.01" y2="156.673"/>
		</g>
	</g>
</g>
</svg>
