<?xml version="1.0" encoding="utf-8"?>
<!-- Generator: Adobe Illustrator 16.0.0, SVG Export Plug-In . SVG Version: 6.00 Build 0)  -->
<!DOCTYPE svg PUBLIC "-//W3C//DTD SVG 1.1//EN" "http://www.w3.org/Graphics/SVG/1.1/DTD/svg11.dtd">
<svg version="1.1" id="Layer_1" xmlns="http://www.w3.org/2000/svg" xmlns:xlink="http://www.w3.org/1999/xlink" x="0px" y="0px"
	 width="841.458px" height="524.556px" viewBox="0 0 841.458 524.556" enable-background="new 0 0 841.458 524.556"
	 xml:space="preserve">
<polygon fill="#FF88AD" points="768.034,66.89 693.035,66.89 618.037,216.89 543.04,366.89 768.034,366.89 "/>
<polygon fill="#7BC3FF" points="468.041,366.889 543.04,366.889 618.038,216.889 693.035,66.889 468.041,66.889 "/>
<line fill="none" stroke="#939598" stroke-miterlimit="10" x1="618.036" y1="66.889" x2="618.036" y2="366.889"/>
<line fill="none" stroke="#939598" stroke-miterlimit="10" x1="693.037" y1="216.889" x2="768.034" y2="216.889"/>
<line fill="none" stroke="#939598" stroke-miterlimit="10" x1="618.034" y1="216.889" x2="693.037" y2="216.889"/>
<line fill="none" stroke="#939598" stroke-miterlimit="10" x1="543.034" y1="216.889" x2="618.034" y2="216.889"/>
<line fill="none" stroke="#FFCE00" stroke-width="7" stroke-miterlimit="10" x1="580.538" y1="291.889" x2="655.535" y2="141.889"/>
<line fill="none" stroke="#939598" stroke-miterlimit="10" x1="468.034" y1="216.889" x2="543.034" y2="216.889"/>
<polyline fill="none" stroke="#231F20" stroke-width="3" stroke-miterlimit="10" points="768.034,291.889 580.534,291.889 
	580.534,141.889 "/>
<text transform="matrix(1 0 0 1 579.7017 130.6387)" font-family="'DINOT'" font-size="26">V</text>
<text transform="matrix(0.583 0 0 0.583 593.8975 139.2969)" font-family="'DINOT'" font-size="26">dd</text>
<text transform="matrix(1 0 0 1 624.5347 315.2217)" font-family="'DINOT'" font-size="26">V</text>
<text transform="matrix(0.583 0 0 0.583 638.7305 323.8799)" font-family="'DINOT'" font-size="26">ss</text>
<text transform="matrix(1 0 0 1 496.2119 56.7227)" fill="#7BC3FF" font-family="'DINOT'" font-size="26">1. V</text>
<text transform="matrix(0.583 0 0 0.583 537.4727 65.3809)" fill="#7BC3FF" font-family="'DINOT'" font-size="26">+ </text>
<text transform="matrix(1 0 0 1 549.1592 56.7227)" fill="#7BC3FF" font-family="'DINOT'" font-size="26">&gt; V</text>
<text transform="matrix(0.583 0 0 0.583 583.4004 65.3809)" fill="#7BC3FF" font-family="'DINOT'" font-size="26">-</text>
<text transform="matrix(1 0 0 1 646.2139 56.7227)" fill="#FF88AD" font-family="'DINOT'" font-size="26">2. V</text>
<text transform="matrix(0.583 0 0 0.583 687.4746 65.3809)" fill="#FF88AD" font-family="'DINOT'" font-size="26">+ </text>
<text transform="matrix(1 0 0 1 699.1611 56.7227)" fill="#FF88AD" font-family="'DINOT'" font-size="26">&lt; V</text>
<text transform="matrix(0.583 0 0 0.583 733.4023 65.3809)" fill="#FF88AD" font-family="'DINOT'" font-size="26">-</text>
<text transform="matrix(1 0 0 1 770.3252 220.8887)" fill="#FFFFFF" font-family="'DINOT'" font-size="26">V</text>
<text transform="matrix(0.583 0 0 0.583 784.521 229.5469)" fill="#FFFFFF" font-family="'DINOT'" font-size="26">+ </text>
<text transform="matrix(1 0 0 1 796.2075 220.8887)" fill="#FFFFFF" font-family="'DINOT'" font-size="26">- V</text>
<text transform="matrix(0.583 0 0 0.583 827.9531 229.5469)" fill="#FFFFFF" font-family="'DINOT'" font-size="26">-</text>
<text transform="matrix(1 0 0 1 571.2119 27.2217)" fill="#FFCE00" font-family="'DINOT'" font-size="26">3. V</text>
<text transform="matrix(0.583 0 0 0.583 612.4727 35.8799)" fill="#FFCE00" font-family="'DINOT'" font-size="26">+ </text>
<text transform="matrix(1 0 0 1 624.1592 27.2217)" fill="#FFCE00" font-family="'DINOT'" font-size="26">= V</text>
<text transform="matrix(0.583 0 0 0.583 658.4004 35.8799)" fill="#FFCE00" font-family="'DINOT'" font-size="26">-</text>
<text transform="matrix(1 0 0 1 600.1455 388.5557)" fill="#FFFFFF" font-family="'DINOT'" font-size="26">V</text>
<text transform="matrix(0.583 0 0 0.583 614.3413 397.2139)" fill="#FFFFFF" font-family="'DINOT'" font-size="26">out</text>
<line fill="none" stroke="#231F20" stroke-miterlimit="10" stroke-dasharray="6" x1="768.034" y1="141.889" x2="655.535" y2="141.889"/>
<line fill="none" stroke="#231F20" stroke-miterlimit="10" stroke-dasharray="6" x1="580.538" y1="291.889" x2="468.036" y2="291.889"/>
<text transform="matrix(1 0 0 1 699.0347 204.6387)" font-family="'DINOT'" font-size="26">V</text>
<text transform="matrix(0.583 0 0 0.583 713.2305 213.2969)" font-family="'DINOT'" font-size="26">dd</text>
<text transform="matrix(1 0 0 1 505.5347 204.6387)" font-family="'DINOT'" font-size="26">V</text>
<text transform="matrix(0.583 0 0 0.583 519.7305 213.2969)" font-family="'DINOT'" font-size="26">ss</text>
<line fill="none" stroke="#231F20" stroke-width="3" stroke-miterlimit="10" x1="580.538" y1="291.89" x2="655.536" y2="141.89"/>
<g>
	<g>
		
			<line fill="none" stroke="#231F20" stroke-width="3" stroke-miterlimit="10" x1="655.534" y1="216.89" x2="655.534" y2="260.045"/>
		<g>
			<path fill="#231F20" d="M646.174,246.718c0.454-0.289,1.057-0.154,1.347,0.3l8.013,12.582l8.013-12.582
				c0.29-0.454,0.893-0.589,1.347-0.3c0.453,0.29,0.584,0.896,0.299,1.347l-8.836,13.874c-0.179,0.281-0.489,0.451-0.823,0.451
				s-0.644-0.17-0.823-0.451l-8.836-13.874c-0.103-0.162-0.152-0.344-0.152-0.522C645.723,247.22,645.883,246.905,646.174,246.718z"
				/>
		</g>
	</g>
</g>
<g>
	<g>
		
			<line fill="none" stroke="#231F20" stroke-width="3" stroke-miterlimit="10" x1="580.534" y1="216.889" x2="580.534" y2="173.733"/>
		<g>
			<path fill="#231F20" d="M589.894,187.061c-0.453,0.289-1.057,0.154-1.346-0.3l-8.013-12.582l-8.013,12.582
				c-0.29,0.454-0.893,0.589-1.346,0.3c-0.454-0.29-0.585-0.896-0.299-1.347l8.836-13.874c0.179-0.281,0.49-0.451,0.823-0.451
				s0.644,0.17,0.823,0.451l8.836,13.874c0.103,0.162,0.152,0.344,0.152,0.522C590.345,186.559,590.185,186.873,589.894,187.061z"/>
		</g>
	</g>
</g>
<line fill="none" stroke="#FFFFFF" stroke-width="3" stroke-miterlimit="10" x1="107.737" y1="177.361" x2="52.385" y2="177.361"/>
<polyline fill="none" stroke="#FFFFFF" stroke-width="3" stroke-miterlimit="10" points="303.132,238.304 303.132,256.345 
	316.844,264.261 289.42,280.095 316.844,295.929 289.42,311.762 303.343,319.801 303.132,320.18 303.132,335.012 "/>
<polyline fill="none" stroke="#FFFFFF" stroke-width="3" stroke-miterlimit="10" points="303.132,357.389 68.885,357.389 
	68.885,256.417 107.737,256.417 "/>
<polyline fill="none" stroke="#FFFFFF" stroke-width="3" stroke-miterlimit="10" points="303.132,238.304 303.132,216.889 
	264.28,216.889 "/>
<line fill="none" stroke="#FFFFFF" stroke-width="3" stroke-miterlimit="10" x1="303.132" y1="335.012" x2="303.132" y2="357.389"/>
<polyline fill="none" stroke="#FFFFFF" stroke-width="3" stroke-miterlimit="10" points="303.132,378.534 303.132,396.575 
	316.844,404.491 289.42,420.325 316.844,436.159 289.42,451.992 303.343,460.031 303.132,460.41 303.132,475.242 "/>
<line fill="none" stroke="#FFFFFF" stroke-width="3" stroke-miterlimit="10" x1="303.132" y1="378.534" x2="303.132" y2="357.389"/>
<line fill="none" stroke="#FFFFFF" stroke-width="3" stroke-miterlimit="10" x1="303.132" y1="496.388" x2="303.132" y2="475.242"/>
<polygon fill="none" stroke="#FFFFFF" stroke-width="3" stroke-miterlimit="10" points="316.844,496.388 289.42,496.388 
	303.132,512.889 "/>
<text transform="matrix(1 0 0 1 326.917 370.8887)" fill="#FFFFFF" font-family="'DINOT'" font-size="48">a</text>
<line fill="none" stroke="#FFFFFF" stroke-width="3" stroke-miterlimit="10" x1="303.132" y1="216.889" x2="322.04" y2="216.889"/>
<text transform="matrix(1 0 0 1 331.1821 216.8896)" fill="#FFFFFF" font-family="'DINOT'" font-size="48">V</text>
<text transform="matrix(0.583 0 0 0.583 357.3896 232.873)" fill="#FFFFFF" font-family="'DINOT'" font-size="48">out</text>
<text transform="matrix(1 0 0 1 14.8618 194.1387)" fill="#FFFFFF" font-family="'DINOT'" font-size="48">V</text>
<text transform="matrix(0.583 0 0 0.583 41.0693 210.123)" fill="#FFFFFF" font-family="'DINOT'" font-size="48">-</text>
<text transform="matrix(1 0 0 1 90.5352 418.8877)" fill="#FFFFFF" font-family="'DINOT'" font-size="48">V</text>
<text transform="matrix(0.583 0 0 0.583 116.7427 434.8711)" fill="#FFFFFF" font-family="'DINOT'" font-size="48">+ </text>
<text transform="matrix(1 0 0 1 138.3179 418.8877)" fill="#FFFFFF" font-family="'DINOT'" font-size="48">= aV</text>
<text transform="matrix(0.583 0 0 0.583 226.7793 434.8711)" fill="#FFFFFF" font-family="'DINOT'" font-size="48">out</text>
<g>
	<polyline fill="none" stroke="#FFFFFF" stroke-width="3" stroke-miterlimit="10" points="178.582,172.28 178.582,103.279 
		200.231,90.78 156.93,115.78 	"/>
	<polyline fill="none" stroke="#FFFFFF" stroke-width="3" stroke-miterlimit="10" points="200.232,317.998 156.931,342.998 
		178.581,330.498 178.581,261.498 	"/>
	<g>
		<polygon fill="none" stroke="#FFFFFF" stroke-width="3" stroke-miterlimit="10" points="107.737,137.887 268.625,216.943 
			107.737,295.998 		"/>
		
			<line fill="none" stroke="#FFFFFF" stroke-width="3" stroke-miterlimit="10" x1="122.093" y1="256.471" x2="146.926" y2="256.471"/>
		<g>
			
				<line fill="none" stroke="#FFFFFF" stroke-width="3" stroke-miterlimit="10" x1="122.093" y1="177.414" x2="146.926" y2="177.414"/>
			
				<line fill="none" stroke="#FFFFFF" stroke-width="3" stroke-miterlimit="10" x1="134.509" y1="164.998" x2="134.509" y2="189.831"/>
		</g>
	</g>
</g>
<polyline fill="none" stroke="#231F20" stroke-width="3" stroke-miterlimit="10" points="468.035,141.89 655.536,141.89 
	655.536,291.89 "/>
</svg>
